{
  "accessors": [
    {
      "bufferView": 2,
      "componentType": 5126,
      "count": 921,
      "max": [
        1.2373744249343872,
        2.3756983280181885,
        3.009631633758545
      ],
      "min": [
        -1.2373744249343872,
        0.0007289648056030273,
        -2.668861150741577
      ],
      "type": "VEC3"
    },
    {
      "bufferView": 2,
      "byteOffset": 11052,
      "componentType": 5126,
      "count": 921,
      "max": [
        1.0,
        1.0,
        1.0
      ],
      "min": [
        -1.0,
        -1.0,
        -0.9999942779541016
      ],
      "type": "VEC3"
    },
    {
      "bufferView": 1,
      "componentType": 5126,
      "count": 921,
      "max": [
        0.01798894628882408,
        0.9871121048927307
      ],
      "min": [
        0.009370192885398865,
        0.7298659682273865
      ],
      "type": "VEC2"
    },
    {
      "bufferView": 0,
      "componentType": 5125,
      "count": 2160,
      "type": "SCALAR"
    },
    {
      "bufferView": 2,
      "byteOffset": 22104,
      "componentType": 5126,
      "count": 922,
      "max": [
        1.2373744249343872,
        2.3756983280181885,
        3.009631633758545
      ],
      "min": [
        -1.2373744249343872,
        0.0007289648056030273,
        -2.668861150741577
      ],
      "type": "VEC3"
    },
    {
      "bufferView": 2,
      "byteOffset": 33168,
      "componentType": 5126,
      "count": 922,
      "max": [
        1.0,
        1.0,
        1.0
      ],
      "min": [
        -1.0,
        -1.0,
        -0.9999942779541016
      ],
      "type": "VEC3"
    },
    {
      "bufferView": 1,
      "byteOffset": 7368,
      "componentType": 5126,
      "count": 922,
      "max": [
        0.03925011307001114,
        0.9871121048927307
      ],
      "min": [
        0.030631357803940773,
        0.7298659682273865
      ],
      "type": "VEC2"
    },
    {
      "bufferView": 0,
      "byteOffset": 8640,
      "componentType": 5125,
      "count": 2160,
      "type": "SCALAR"
    },
    {
      "bufferView": 2,
      "byteOffset": 44232,
      "componentType": 5126,
      "count": 1038,
      "max": [
        1.2373744249343872,
        2.3756983280181885,
        3.009631633758545
      ],
      "min": [
        -1.2373744249343872,
        0.0007289648056030273,
        -2.668861150741577
      ],
      "type": "VEC3"
    },
    {
      "bufferView": 2,
      "byteOffset": 56688,
      "componentType": 5126,
      "count": 1038,
      "max": [
        1.0,
        1.0,
        1.0
      ],
      "min": [
        -1.0,
        -1.0,
        -0.9999942779541016
      ],
      "type": "VEC3"
    },
    {
      "bufferView": 1,
      "byteOffset": 14744,
      "componentType": 5126,
      "count": 1038,
      "max": [
        0.11045630276203156,
        0.9871121644973755
      ],
      "min": [
        0.10012387484312057,
        0.7298659682273865
      ],
      "type": "VEC2"
    },
    {
      "bufferView": 0,
      "byteOffset": 17280,
      "componentType": 5125,
      "count": 2388,
      "type": "SCALAR"
    },
    {
      "bufferView": 2,
      "byteOffset": 69144,
      "componentType": 5126,
      "count": 1038,
      "max": [
        1.2373744249343872,
        2.3756983280181885,
        3.009631633758545
      ],
      "min": [
        -1.2373744249343872,
        0.0007289648056030273,
        -2.668861150741577
      ],
      "type": "VEC3"
    },
    {
      "bufferView": 2,
      "byteOffset": 81600,
      "componentType": 5126,
      "count": 1038,
      "max": [
        1.0,
        1.0,
        1.0
      ],
      "min": [
        -1.0,
        -1.0,
        -0.9999942779541016
      ],
      "type": "VEC3"
    },
    {
      "bufferView": 1,
      "byteOffset": 23048,
      "componentType": 5126,
      "count": 1038,
      "max": [
        0.13435865938663483,
        0.9871121644973755
      ],
      "min": [
        0.12453484535217285,
        0.7298659682273865
      ],
      "type": "VEC2"
    },
    {
      "bufferView": 0,
      "byteOffset": 26832,
      "componentType": 5125,
      "count": 2388,
      "type": "SCALAR"
    },
    {
      "bufferView": 2,
      "byteOffset": 94056,
      "componentType": 5126,
      "count": 922,
      "max": [
        1.2373744249343872,
        2.3756983280181885,
        3.009631633758545
      ],
      "min": [
        -1.2373744249343872,
        0.0007289648056030273,
        -2.668861150741577
      ],
      "type": "VEC3"
    },
    {
      "bufferView": 2,
      "byteOffset": 105120,
      "componentType": 5126,
      "count": 922,
      "max": [
        1.0,
        1.0,
        1.0
      ],
      "min": [
        -1.0,
        -1.0,
        -0.9999942779541016
      ],
      "type": "VEC3"
    },
    {
      "bufferView": 1,
      "byteOffset": 31352,
      "componentType": 5126,
      "count": 922,
      "max": [
        0.06425166875123978,
        0.9871121048927307
      ],
      "min": [
        0.05563291162252426,
        0.7298659682273865
      ],
      "type": "VEC2"
    },
    {
      "bufferView": 0,
      "byteOffset": 36384,
      "componentType": 5125,
      "count": 2160,
      "type": "SCALAR"
    },
    {
      "bufferView": 2,
      "byteOffset": 116184,
      "componentType": 5126,
      "count": 1038,
      "max": [
        1.2373744249343872,
        2.3756983280181885,
        3.009631633758545
      ],
      "min": [
        -1.2373744249343872,
        0.0007289648056030273,
        -2.668861150741577
      ],
      "type": "VEC3"
    },
    {
      "bufferView": 2,
      "byteOffset": 128640,
      "componentType": 5126,
      "count": 1038,
      "max": [
        1.0,
        1.0,
        1.0
      ],
      "min": [
        -1.0,
        -1.0,
        -0.9999942779541016
      ],
      "type": "VEC3"
    },
    {
      "bufferView": 1,
      "byteOffset": 38728,
      "componentType": 5126,
      "count": 1038,
      "max": [
        0.08711162209510803,
        0.9871121644973755
      ],
      "min": [
        0.07728780806064606,
        0.7298659682273865
      ],
      "type": "VEC2"
    },
    {
      "bufferView": 0,
      "byteOffset": 45024,
      "componentType": 5125,
      "count": 2388,
      "type": "SCALAR"
    },
    {
      "bufferView": 2,
      "byteOffset": 141096,
      "componentType": 5126,
      "count": 921,
      "max": [
        1.2373744249343872,
        2.3756983280181885,
        3.009631633758545
      ],
      "min": [
        -1.2373744249343872,
        0.0007289648056030273,
        -2.668861150741577
      ],
      "type": "VEC3"
    },
    {
      "bufferView": 2,
      "byteOffset": 152148,
      "componentType": 5126,
      "count": 921,
      "max": [
        1.0,
        1.0,
        1.0
      ],
      "min": [
        -1.0,
        -1.0,
        -0.9999942779541016
      ],
      "type": "VEC3"
    },
    {
      "bufferView": 1,
      "byteOffset": 47032,
      "componentType": 5126,
      "count": 921,
      "max": [
        0.15798895061016083,
        0.9871121048927307
      ],
      "min": [
        0.1493701934814453,
        0.7298659682273865
      ],
      "type": "VEC2"
    },
    {
      "bufferView": 0,
      "byteOffset": 54576,
      "componentType": 5125,
      "count": 2160,
      "type": "SCALAR"
    },
    {
      "bufferView": 2,
      "byteOffset": 163200,
      "componentType": 5126,
      "count": 922,
      "max": [
        1.2373744249343872,
        2.3756983280181885,
        3.009631633758545
      ],
      "min": [
        -1.2373744249343872,
        0.0007289648056030273,
        -2.668861150741577
      ],
      "type": "VEC3"
    },
    {
      "bufferView": 2,
      "byteOffset": 174264,
      "componentType": 5126,
      "count": 922,
      "max": [
        1.0,
        1.0,
        1.0
      ],
      "min": [
        -1.0,
        -1.0,
        -0.9999942779541016
      ],
      "type": "VEC3"
    },
    {
      "bufferView": 1,
      "byteOffset": 54400,
      "componentType": 5126,
      "count": 922,
      "max": [
        0.179250106215477,
        0.9871121048927307
      ],
      "min": [
        0.17063136398792267,
        0.7298659682273865
      ],
      "type": "VEC2"
    },
    {
      "bufferView": 0,
      "byteOffset": 63216,
      "componentType": 5125,
      "count": 2160,
      "type": "SCALAR"
    },
    {
      "bufferView": 2,
      "byteOffset": 185328,
      "componentType": 5126,
      "count": 922,
      "max": [
        1.2373744249343872,
        2.3756983280181885,
        3.009631633758545
      ],
      "min": [
        -1.2373744249343872,
        0.0007289648056030273,
        -2.668861150741577
      ],
      "type": "VEC3"
    },
    {
      "bufferView": 2,
      "byteOffset": 196392,
      "componentType": 5126,
      "count": 922,
      "max": [
        1.0,
        1.0,
        1.0
      ],
      "min": [
        -1.0,
        -1.0,
        -0.9999942779541016
      ],
      "type": "VEC3"
    },
    {
      "bufferView": 1,
      "byteOffset": 61776,
      "componentType": 5126,
      "count": 922,
      "max": [
        0.20451876521110535,
        0.9871121048927307
      ],
      "min": [
        0.1956329196691513,
        0.7298659682273865
      ],
      "type": "VEC2"
    },
    {
      "bufferView": 0,
      "byteOffset": 71856,
      "componentType": 5125,
      "count": 2160,
      "type": "SCALAR"
    },
    {
      "bufferView": 2,
      "byteOffset": 207456,
      "componentType": 5126,
      "count": 1033,
      "max": [
        1.2373744249343872,
        2.3756983280181885,
        3.009631633758545
      ],
      "min": [
        -1.2373744249343872,
        0.0007289648056030273,
        -2.668861150741577
      ],
      "type": "VEC3"
    },
    {
      "bufferView": 2,
      "byteOffset": 219852,
      "componentType": 5126,
      "count": 1033,
      "max": [
        1.0,
        1.0,
        1.0
      ],
      "min": [
        -1.0,
        -1.0,
        -0.9999942779541016
      ],
      "type": "VEC3"
    },
    {
      "bufferView": 1,
      "byteOffset": 69152,
      "componentType": 5126,
      "count": 1033,
      "max": [
        0.24874262511730194,
        0.9871121644973755
      ],
      "min": [
        0.24012386798858643,
        0.7298659682273865
      ],
      "type": "VEC2"
    },
    {
      "bufferView": 0,
      "byteOffset": 80496,
      "componentType": 5125,
      "count": 2388,
      "type": "SCALAR"
    },
    {
      "bufferView": 2,
      "byteOffset": 232248,
      "componentType": 5126,
      "count": 1038,
      "max": [
        1.2373744249343872,
        2.3756983280181885,
        3.009631633758545
      ],
      "min": [
        -1.2373744249343872,
        0.0007289648056030273,
        -2.668861150741577
      ],
      "type": "VEC3"
    },
    {
      "bufferView": 2,
      "byteOffset": 244704,
      "componentType": 5126,
      "count": 1038,
      "max": [
        1.0,
        1.0,
        1.0
      ],
      "min": [
        -1.0,
        -1.0,
        -0.9999942779541016
      ],
      "type": "VEC3"
    },
    {
      "bufferView": 1,
      "byteOffset": 77416,
      "componentType": 5126,
      "count": 1038,
      "max": [
        0.2731536030769348,
        0.9871121644973755
      ],
      "min": [
        0.2645348310470581,
        0.7298659682273865
      ],
      "type": "VEC2"
    },
    {
      "bufferView": 0,
      "byteOffset": 90048,
      "componentType": 5125,
      "count": 2388,
      "type": "SCALAR"
    },
    {
      "bufferView": 2,
      "byteOffset": 257160,
      "componentType": 5126,
      "count": 1038,
      "max": [
        1.2373744249343872,
        2.3756983280181885,
        3.009631633758545
      ],
      "min": [
        -1.2373744249343872,
        0.0007289648056030273,
        -2.668861150741577
      ],
      "type": "VEC3"
    },
    {
      "bufferView": 2,
      "byteOffset": 269616,
      "componentType": 5126,
      "count": 1038,
      "max": [
        1.0,
        1.0,
        1.0
      ],
      "min": [
        -1.0,
        -1.0,
        -0.9999942779541016
      ],
      "type": "VEC3"
    },
    {
      "bufferView": 1,
      "byteOffset": 85720,
      "componentType": 5126,
      "count": 1038,
      "max": [
        0.22590655088424683,
        0.9871121644973755
      ],
      "min": [
        0.2172878086566925,
        0.7298659682273865
      ],
      "type": "VEC2"
    },
    {
      "bufferView": 0,
      "byteOffset": 99600,
      "componentType": 5125,
      "count": 2388,
      "type": "SCALAR"
    }
  ],
  "asset": {
    "extras": {
      "author": "DigitalFruit Studio (https://sketchfab.com/visoart)",
      "license": "CC-BY-4.0 (http://creativecommons.org/licenses/by/4.0/)",
      "source": "https://sketchfab.com/3d-models/lowpoly-vehicles-blend-file-7ababb78b4f34c9b93a6b1894e569631",
      "title": "Lowpoly Vehicles [BLEND FILE]"
    },
    "generator": "Sketchfab-11.41.0",
    "version": "2.0"
  },
  "bufferViews": [
    {
      "buffer": 0,
      "byteLength": 109152,
      "name": "floatBufferViews",
      "target": 34963
    },
    {
      "buffer": 0,
      "byteLength": 94024,
      "byteOffset": 109152,
      "byteStride": 8,
      "name": "floatBufferViews",
      "target": 34962
    },
    {
      "buffer": 0,
      "byteLength": 282072,
      "byteOffset": 203176,
      "byteStride": 12,
      "name": "floatBufferViews",
      "target": 34962
    }
  ],
  "buffers": [
    {
      "byteLength": 485248,
      "uri": "scene.bin"
    }
  ],
  "extensionsUsed": [
    "KHR_materials_unlit"
  ],
  "images": [
    {
      "uri": "textures/vehicles_baseColor.png"
    }
  ],
  "materials": [
    {
      "extensions": {
        "KHR_materials_unlit": {}
      },
      "name": "vehicles",
      "pbrMetallicRoughness": {
        "baseColorTexture": {
          "index": 0
        },
        "metallicFactor": 0.0
      }
    }
  ],
  "meshes": [
    {
      "name": "Object_0",
      "primitives": [
        {
          "attributes": {
            "NORMAL": 1,
            "POSITION": 0,
            "TEXCOORD_0": 2
          },
          "indices": 3,
          "material": 0,
          "mode": 4
        }
      ]
    },
    {
      "name": "Object_1",
      "primitives": [
        {
          "attributes": {
            "NORMAL": 5,
            "POSITION": 4,
            "TEXCOORD_0": 6
          },
          "indices": 7,
          "material": 0,
          "mode": 4
        }
      ]
    },
    {
      "name": "Object_2",
      "primitives": [
        {
          "attributes": {
            "NORMAL": 9,
            "POSITION": 8,
            "TEXCOORD_0": 10
          },
          "indices": 11,
          "material": 0,
          "mode": 4
        }
      ]
    },
    {
      "name": "Object_3",
      "primitives": [
        {
          "attributes": {
            "NORMAL": 13,
            "POSITION": 12,
            "TEXCOORD_0": 14
          },
          "indices": 15,
          "material": 0,
          "mode": 4
        }
      ]
    },
    {
      "name": "Object_4",
      "primitives": [
        {
          "attributes": {
            "NORMAL": 17,
            "POSITION": 16,
            "TEXCOORD_0": 18
          },
          "indices": 19,
          "material": 0,
          "mode": 4
        }
      ]
    },
    {
      "name": "Object_5",
      "primitives": [
        {
          "attributes": {
            "NORMAL": 21,
            "POSITION": 20,
            "TEXCOORD_0": 22
          },
          "indices": 23,
          "material": 0,
          "mode": 4
        }
      ]
    },
    {
      "name": "Object_6",
      "primitives": [
        {
          "attributes": {
            "NORMAL": 25,
            "POSITION": 24,
            "TEXCOORD_0": 26
          },
          "indices": 27,
          "material": 0,
          "mode": 4
        }
      ]
    },
    {
      "name": "Object_7",
      "primitives": [
        {
          "attributes": {
            "NORMAL": 29,
            "POSITION": 28,
            "TEXCOORD_0": 30
          },
          "indices": 31,
          "material": 0,
          "mode": 4
        }
      ]
    },
    {
      "name": "Object_8",
      "primitives": [
        {
          "attributes": {
            "NORMAL": 33,
            "POSITION": 32,
            "TEXCOORD_0": 34
          },
          "indices": 35,
          "material": 0,
          "mode": 4
        }
      ]
    },
    {
      "name": "Object_9",
      "primitives": [
        {
          "attributes": {
            "NORMAL": 37,
            "POSITION": 36,
            "TEXCOORD_0": 38
          },
          "indices": 39,
          "material": 0,
          "mode": 4
        }
      ]
    },
    {
      "name": "Object_10",
      "primitives": [
        {
          "attributes": {
            "NORMAL": 41,
            "POSITION": 40,
            "TEXCOORD_0": 42
          },
          "indices": 43,
          "material": 0,
          "mode": 4
        }
      ]
    },
    {
      "name": "Object_11",
      "primitives": [
        {
          "attributes": {
            "NORMAL": 45,
            "POSITION": 44,
            "TEXCOORD_0": 46
          },
          "indices": 47,
          "material": 0,
          "mode": 4
        }
      ]
    }
  ],
  "nodes": [
    {
      "children": [
        1
      ],
      "matrix": [
        1.0,
        0.0,
        0.0,
        0.0,
        0.0,
        2.220446049250313e-16,
        -1.0,
        0.0,
        0.0,
        1.0,
        2.220446049250313e-16,
        0.0,
        0.0,
        0.0,
        0.0,
        1.0
      ],
      "name": "Sketchfab_model"
    },
    {
      "children": [
        2
      ],
      "name": "root"
    },
    {
      "children": [
        3,
        5,
        7,
        9,
        11,
        13,
        15,
        17,
        19,
        21,
        23,
        25
      ],
      "matrix": [
        1.0,
        0.0,
        0.0,
        0.0,
        0.0,
        2.220446049250313e-16,
        1.0,
        0.0,
        0.0,
        -1.0,
        2.220446049250313e-16,
        0.0,
        0.0,
        0.0,
        0.0,
        1.0
      ],
      "name": "GLTF_SceneRootNode"
    },
    {
      "children": [
        4
      ],
      "name": "car1a_0"
    },
    {
      "mesh": 0,
      "name": "Object_4"
    },
    {
      "children": [
        6
      ],
      "matrix": [
        1.0,
        0.0,
        0.0,
        0.0,
        0.0,
        1.0,
        0.0,
        0.0,
        0.0,
        0.0,
        1.0,
        0.0,
        4.0,
        0.0,
        0.0,
        1.0
      ],
      "name": "car1b_1"
    },
    {
      "mesh": 1,
      "name": "Object_6"
    },
    {
      "children": [
        8
      ],
      "matrix": [
        1.0,
        0.0,
        0.0,
        0.0,
        0.0,
        1.0,
        0.0,
        0.0,
        0.0,
        0.0,
        1.0,
        0.0,
        16.0,
        0.0,
        0.0,
        1.0
      ],
      "name": "car1e_2"
    },
    {
      "mesh": 2,
      "name": "Object_8"
    },
    {
      "children": [
        10
      ],
      "matrix": [
        1.0,
        0.0,
        0.0,
        0.0,
        0.0,
        1.0,
        0.0,
        0.0,
        0.0,
        0.0,
        1.0,
        0.0,
        20.0,
        0.0,
        0.0,
        1.0
      ],
      "name": "car1f_3"
    },
    {
      "mesh": 3,
      "name": "Object_10"
    },
    {
      "children": [
        12
      ],
      "matrix": [
        1.0,
        0.0,
        0.0,
        0.0,
        0.0,
        1.0,
        0.0,
        0.0,
        0.0,
        0.0,
        1.0,
        0.0,
        8.0,
        0.0,
        0.0,
        1.0
      ],
      "name": "car1c_4"
    },
    {
      "mesh": 4,
      "name": "Object_12"
    },
    {
      "children": [
        14
      ],
      "matrix": [
        1.0,
        0.0,
        0.0,
        0.0,
        0.0,
        1.0,
        0.0,
        0.0,
        0.0,
        0.0,
        1.0,
        0.0,
        12.0,
        0.0,
        0.0,
        1.0
      ],
      "name": "car1d_5"
    },
    {
      "mesh": 5,
      "name": "Object_14"
    },
    {
      "children": [
        16
      ],
      "matrix": [
        1.0,
        0.0,
        0.0,
        0.0,
        0.0,
        1.0,
        0.0,
        0.0,
        0.0,
        0.0,
        1.0,
        0.0,
        0.0,
        0.0,
        -7.0,
        1.0
      ],
      "name": "car1g_6"
    },
    {
      "mesh": 6,
      "name": "Object_16"
    },
    {
      "children": [
        18
      ],
      "matrix": [
        1.0,
        0.0,
        0.0,
        0.0,
        0.0,
        1.0,
        0.0,
        0.0,
        0.0,
        0.0,
        1.0,
        0.0,
        4.0,
        0.0,
        -7.0,
        1.0
      ],
      "name": "car1h_7"
    },
    {
      "mesh": 7,
      "name": "Object_18"
    },
    {
      "children": [
        20
      ],
      "matrix": [
        1.0,
        0.0,
        0.0,
        0.0,
        0.0,
        1.0,
        0.0,
        0.0,
        0.0,
        0.0,
        1.0,
        0.0,
        8.0,
        0.0,
        -7.0,
        1.0
      ],
      "name": "car1i_8"
    },
    {
      "mesh": 8,
      "name": "Object_20"
    },
    {
      "children": [
        22
      ],
      "matrix": [
        1.0,
        0.0,
        0.0,
        0.0,
        0.0,
        1.0,
        0.0,
        0.0,
        0.0,
        0.0,
        1.0,
        0.0,
        16.0,
        0.0,
        -7.0,
        1.0
      ],
      "name": "car1k_9"
    },
    {
      "mesh": 9,
      "name": "Object_22"
    },
    {
      "children": [
        24
      ],
      "matrix": [
        1.0,
        0.0,
        0.0,
        0.0,
        0.0,
        1.0,
        0.0,
        0.0,
        0.0,
        0.0,
        1.0,
        0.0,
        20.0,
        0.0,
        -7.0,
        1.0
      ],
      "name": "car1l_10"
    },
    {
      "mesh": 10,
      "name": "Object_24"
    },
    {
      "children": [
        26
      ],
      "matrix": [
        1.0,
        0.0,
        0.0,
        0.0,
        0.0,
        1.0,
        0.0,
        0.0,
        0.0,
        0.0,
        1.0,
        0.0,
        12.0,
        0.0,
        -7.0,
        1.0
      ],
      "name": "car1j_11"
    },
    {
      "mesh": 11,
      "name": "Object_26"
    }
  ],
  "samplers": [
    {
      "magFilter": 9729,
      "minFilter": 9987,
      "wrapS": 10497,
      "wrapT": 10497
    }
  ],
  "scene": 0,
  "scenes": [
    {
      "name": "Sketchfab_Scene",
      "nodes": [
        0
      ]
    }
  ],
  "textures": [
    {
      "sampler": 0,
      "source": 0
    }
  ]
}
